<svg width="1080" height="1080" viewBox="0 0 1080 1080" fill="none" xmlns="http://www.w3.org/2000/svg">
<rect width="1080" height="1080" fill="white"/>
<path d="M307 504.629H311.767L330.041 539.333L346.443 504.629H351.096V544.65H346.443V508.345L329.247 544.65H327.601L308.532 508.574V544.65H307V504.629Z" fill="black"/>
<path d="M379.035 545.222C368.366 545.222 363.031 539.791 363.031 528.928V504.629H367.685V529.557C367.685 534.397 368.782 537.942 370.977 540.191C373.171 542.44 376.065 543.564 379.66 543.564C383.557 543.564 386.678 542.325 389.024 539.848C391.37 537.332 392.542 533.749 392.542 529.099V504.629H394.075V529.042C394.075 534.416 392.713 538.457 389.989 541.163C387.264 543.869 383.613 545.222 379.035 545.222Z" fill="black"/>
<path d="M405.872 504.629H422.501C427.457 504.629 431.297 505.639 434.021 507.659C436.783 509.641 438.164 512.443 438.164 516.064C438.164 519.189 437.124 521.724 435.043 523.668C433 525.574 430.087 526.774 426.303 527.27L437.199 544.65H431.695L420.912 527.498H410.526V544.65H405.872V504.629ZM422.501 526.126C426.133 526.126 428.819 525.307 430.56 523.668C432.338 522.029 433.227 519.494 433.227 516.064C433.227 512.633 432.338 510.099 430.56 508.46C428.819 506.821 426.133 506.001 422.501 506.001H410.526V526.126H422.501Z" fill="black"/>
<path d="M462.626 504.629H466.258L482.432 544.65H477.381L471.99 531.329H453.716L448.381 544.65H446.678L462.626 504.629ZM471.365 529.785L462.796 508.517L454.283 529.785H471.365Z" fill="black"/>
<path d="M491.499 504.629H508.127C513.084 504.629 516.924 505.639 519.648 507.659C522.41 509.641 523.791 512.443 523.791 516.064C523.791 519.189 522.75 521.724 520.67 523.668C518.626 525.574 515.713 526.774 511.93 527.27L522.826 544.65H517.321L506.538 527.498H496.153V544.65H491.499V504.629ZM508.127 526.126C511.76 526.126 514.446 525.307 516.186 523.668C517.964 522.029 518.854 519.494 518.854 516.064C518.854 512.633 517.964 510.099 516.186 508.46C514.446 506.821 511.76 506.001 508.127 506.001H496.153V526.126H508.127Z" fill="black"/>
<path d="M554.139 545.222C550.393 545.222 546.837 544.441 543.47 542.878C540.14 541.315 537.435 538.99 535.354 535.903C533.311 532.777 532.29 529.042 532.29 524.697C532.29 520.352 533.33 516.635 535.411 513.548C537.492 510.423 540.197 508.059 543.526 506.458C546.894 504.858 550.45 504.057 554.196 504.057C557.979 504.057 561.536 504.858 564.865 506.458C568.232 508.059 570.938 510.423 572.981 513.548C575.062 516.635 576.102 520.352 576.102 524.697C576.102 529.042 575.062 532.758 572.981 535.846C570.9 538.933 568.176 541.277 564.808 542.878C561.479 544.441 557.922 545.222 554.139 545.222ZM554.196 543.679C557.487 543.679 560.42 542.878 562.992 541.277C565.565 539.638 567.57 537.389 569.008 534.531C570.446 531.634 571.165 528.356 571.165 524.697C571.165 521.076 570.427 517.817 568.951 514.92C567.514 511.985 565.508 509.698 562.936 508.059C560.363 506.42 557.45 505.601 554.196 505.601C550.942 505.601 548.029 506.439 545.456 508.117C542.883 509.755 540.859 512.023 539.384 514.92C537.946 517.817 537.227 521.076 537.227 524.697C537.227 528.318 537.946 531.577 539.384 534.474C540.821 537.37 542.826 539.638 545.399 541.277C547.972 542.878 550.904 543.679 554.196 543.679Z" fill="black"/>
<path d="M624.679 545.222C620.555 545.222 616.866 544.365 613.612 542.649C610.396 540.896 607.88 538.457 606.064 535.331C604.248 532.206 603.34 528.661 603.34 524.697C603.34 520.733 604.248 517.188 606.064 514.063C607.88 510.937 610.415 508.517 613.669 506.802C616.923 505.048 620.612 504.172 624.736 504.172C627.044 504.172 629.238 504.515 631.319 505.201C633.4 505.849 635.159 506.744 636.597 507.888C638.072 508.993 639.113 510.232 639.718 511.604L637.675 512.347C636.654 510.099 635.027 508.383 632.794 507.202C630.6 505.982 628.103 505.372 625.303 505.372C622.314 505.372 619.515 506.192 616.904 507.831C614.293 509.431 612.194 511.699 610.604 514.634C609.053 517.531 608.278 520.847 608.278 524.583C608.278 528.356 609.053 531.729 610.604 534.702C612.156 537.637 614.237 539.924 616.847 541.563C619.458 543.164 622.258 543.964 625.246 543.964C627.441 543.964 629.597 543.564 631.716 542.764C633.835 541.963 635.348 540.953 636.256 539.734V528.07H640.91V532.072C640.91 534.778 640.172 537.142 638.697 539.162C637.221 541.144 635.254 542.649 632.794 543.679C630.335 544.708 627.63 545.222 624.679 545.222Z" fill="black"/>
<path d="M671.245 545.222C667.5 545.222 663.943 544.441 660.576 542.878C657.246 541.315 654.541 538.99 652.46 535.903C650.417 532.777 649.396 529.042 649.396 524.697C649.396 520.352 650.436 516.635 652.517 513.548C654.598 510.423 657.303 508.059 660.633 506.458C664 504.858 667.556 504.057 671.302 504.057C675.085 504.057 678.642 504.858 681.971 506.458C685.339 508.059 688.044 510.423 690.087 513.548C692.168 516.635 693.208 520.352 693.208 524.697C693.208 529.042 692.168 532.758 690.087 535.846C688.006 538.933 685.282 541.277 681.915 542.878C678.585 544.441 675.029 545.222 671.245 545.222ZM671.302 543.679C674.594 543.679 677.526 542.878 680.099 541.277C682.671 539.638 684.676 537.389 686.114 534.531C687.552 531.634 688.271 528.356 688.271 524.697C688.271 521.076 687.533 517.817 686.057 514.92C684.62 511.985 682.615 509.698 680.042 508.059C677.469 506.42 674.556 505.601 671.302 505.601C668.048 505.601 665.135 506.439 662.562 508.117C659.989 509.755 657.965 512.023 656.49 514.92C655.052 517.817 654.333 521.076 654.333 524.697C654.333 528.318 655.052 531.577 656.49 534.474C657.927 537.37 659.933 539.638 662.505 541.277C665.078 542.878 668.01 543.679 671.302 543.679Z" fill="black"/>
<path d="M702.878 504.629H707.475L733.297 537.046V504.629H734.829V544.65H733.41L704.41 508.402V544.65H702.878V504.629Z" fill="black"/>
<path d="M766.406 544.022C769.206 544.022 771.703 543.431 773.897 542.249C776.129 541.029 777.756 539.295 778.778 537.046L780.821 537.79C779.95 539.734 778.267 541.411 775.77 542.821C773.311 544.193 770.473 544.974 767.257 545.165L766.235 547.28C768.279 547.166 769.83 547.566 770.889 548.481C771.986 549.434 772.535 550.597 772.535 551.969C772.535 553.531 772.024 554.751 771.003 555.628C770.019 556.543 768.77 557 767.257 557C766.198 557 765.138 556.771 764.079 556.314C763.02 555.857 762.036 555.17 761.128 554.256L761.639 553.512C763.001 554.427 764.192 554.885 765.214 554.885C766.198 554.885 766.973 554.542 767.541 553.855C768.108 553.207 768.392 552.445 768.392 551.569C768.392 550.692 768.089 549.93 767.484 549.282C766.917 548.672 766.065 548.367 764.93 548.367C764.438 548.367 764.041 548.405 763.738 548.481L765.327 545.222C761.279 545.146 757.666 544.231 754.488 542.478C751.348 540.725 748.888 538.304 747.11 535.217C745.37 532.129 744.499 528.623 744.499 524.697C744.499 520.733 745.408 517.188 747.224 514.063C749.04 510.937 751.575 508.517 754.828 506.802C758.082 505.048 761.771 504.172 765.895 504.172C768.203 504.172 770.397 504.515 772.478 505.201C774.559 505.849 776.318 506.744 777.756 507.888C779.232 508.993 780.272 510.232 780.877 511.604L778.834 512.347C777.813 510.099 776.186 508.383 773.954 507.202C771.759 505.982 769.262 505.372 766.463 505.372C763.511 505.372 760.731 506.192 758.12 507.831C755.547 509.431 753.466 511.699 751.877 514.634C750.326 517.531 749.55 520.847 749.55 524.583C749.55 528.356 750.326 531.729 751.877 534.702C753.428 537.637 755.49 539.924 758.063 541.563C760.674 543.202 763.455 544.022 766.406 544.022Z" fill="black"/>
<path d="M802.527 504.629H806.16L822.334 544.65H817.283L811.891 531.329H793.617L788.283 544.65H786.58L802.527 504.629ZM811.267 529.785L802.698 508.517L794.185 529.785H811.267Z" fill="black"/>
<path d="M831.401 504.629H836.055V543.107H857.79V544.65H831.401V504.629Z" fill="black"/>
<path d="M858.351 504.629H863.402L877.931 540.591L892.232 504.629H893.935L877.987 544.65H874.526L858.351 504.629Z" fill="black"/>
<path d="M902.452 504.629H929.976V506.173H907.105V523.21H924.698V524.754H907.105V543.107H929.976V544.65H902.452V504.629Z" fill="black"/>
<path d="M952.45 545.279C949.158 545.279 946.169 544.65 943.483 543.393C940.797 542.135 938.943 540.324 937.921 537.961L940.078 537.218C941.024 539.429 942.613 541.068 944.845 542.135C947.115 543.202 949.688 543.736 952.563 543.736C954.569 543.736 956.385 543.412 958.012 542.764C959.639 542.078 960.925 541.125 961.871 539.905C962.854 538.685 963.346 537.275 963.346 535.674C963.346 534.035 962.892 532.701 961.984 531.672C961.114 530.605 959.922 529.747 958.409 529.099C956.933 528.413 954.947 527.708 952.45 526.984C949.348 526.107 946.832 525.269 944.902 524.468C942.972 523.668 941.327 522.505 939.965 520.981C938.603 519.418 937.921 517.417 937.921 514.977C937.921 512.69 938.659 510.727 940.135 509.088C941.61 507.411 943.54 506.154 945.923 505.315C948.307 504.438 950.823 504 953.472 504C956.763 504 959.714 504.629 962.325 505.887C964.973 507.145 966.808 508.955 967.83 511.318L965.673 512.061C964.727 509.813 963.138 508.174 960.906 507.145C958.712 506.077 956.196 505.544 953.358 505.544C950.293 505.544 947.721 506.287 945.64 507.773C943.597 509.222 942.575 511.147 942.575 513.548C942.575 515.187 943.01 516.521 943.88 517.55C944.788 518.579 945.961 519.399 947.399 520.009C948.875 520.618 950.899 521.305 953.472 522.067C956.536 522.944 959.033 523.801 960.963 524.64C962.93 525.478 964.595 526.679 965.957 528.242C967.319 529.804 968 531.825 968 534.302C968 536.589 967.262 538.571 965.787 540.248C964.311 541.887 962.382 543.145 959.998 544.022C957.614 544.86 955.098 545.279 952.45 545.279Z" fill="black"/>
<path d="M111 481.934C130.783 474.524 147.31 489.584 155.953 507.174C158.993 513.36 162.162 520.892 165.502 528.833L165.992 530.001C168.037 534.865 169.821 539.577 172 544.5L209.191 488.753L223.183 488.753C220.724 489.563 219.071 490.959 218.223 492.94C217.459 494.92 217.077 497.126 217.077 499.557V511.553C219.133 510.248 221.312 509.102 223.615 508.113C229.216 505.71 235.204 504.509 241.58 504.509C243.993 504.509 246.535 504.687 249.206 505.043C251.877 505.31 254.505 505.799 257.09 506.511C259.761 507.223 262.303 508.158 264.715 509.315C267.128 510.472 269.282 511.853 271.177 513.455V526.807C269.368 524.136 267.3 521.555 264.973 519.062C262.647 516.57 260.105 514.389 257.348 512.52C254.591 510.561 251.661 509.048 248.56 507.98C245.458 506.823 242.27 506.245 238.996 506.245C233.653 506.245 228.914 507.58 224.778 510.25C220.642 512.921 217.152 516.392 214.309 520.665C211.466 524.849 209.312 529.522 207.847 534.684C206.382 539.758 205.65 544.743 205.65 549.639C205.65 554.98 206.511 560.454 208.235 566.062C208.352 566.424 208.471 566.785 208.594 567.143L208.797 540.443C210.306 533.414 213.005 526.674 217.077 521.051V572.347C217.077 574.778 217.459 577.029 218.223 579.099C219.07 581.08 220.724 582.476 223.183 583.286H217.154C220.123 586.993 223.569 590.109 227.492 592.632C229.506 593.865 231.625 594.831 233.848 595.53C229.663 595.391 225.259 594.79 220.682 593.75C216.298 591.455 212.406 588.591 209.01 585.156C204.874 580.883 201.6 575.898 199.187 570.201C196.775 564.415 195.569 558.229 195.569 551.642C195.569 544.966 196.775 538.779 199.187 533.083C201.591 527.317 204.851 522.347 208.966 518.172L209.163 492.324L173.199 546.764C173.224 546.82 173.249 546.876 173.274 546.931L174.123 548.802C174.988 550.695 175.865 552.568 176.756 554.406C185.105 571.645 189.528 582.055 199.883 588.538C205.841 592.268 216.225 596.011 225.032 597.3C233.657 598.561 242.598 598.373 250.196 596.041C251.752 595.537 253.263 594.942 254.723 594.251C256.03 593.669 257.293 592.997 258.511 592.232C258.92 591.961 259.315 591.679 259.699 591.39C259.707 591.385 259.715 591.38 259.723 591.374L259.722 591.372C261.595 589.958 263.174 588.332 264.457 586.491C266.094 584.265 266.912 581.772 266.912 579.013V575.943C266.998 574.875 267.041 573.85 267.041 572.871C267.041 571.625 266.956 570.379 266.783 569.133C266.697 567.798 266.438 566.596 266.007 565.528C265.576 564.371 264.973 563.347 264.198 562.457C263.422 561.567 262.345 560.899 260.967 560.454H281C278.932 561.166 277.424 562.501 276.476 564.459C275.529 566.329 275.055 568.287 275.055 570.334V599.042C274.624 598.33 274.107 597.528 273.504 596.638C272.987 595.748 272.384 594.902 271.695 594.101C271.005 593.3 270.272 592.632 269.497 592.098C268.722 591.564 267.86 591.297 266.912 591.297C266.481 591.297 266.05 591.387 265.62 591.565C265.189 591.743 264.758 591.92 264.328 592.098C260.623 593.967 256.96 595.57 253.341 596.906C252.642 597.146 251.931 597.363 251.21 597.557C247.29 598.818 243.04 599.511 238.676 599.739C228.188 600.591 217.201 599.331 207.364 596.342C198.019 593.503 189.375 588.948 183.487 583.286C180.195 580.12 177.085 576.622 174.184 571.646C168.934 562.641 164.517 552.012 159.659 539.878C159.301 538.982 158.243 536.331 157.879 535.419C154.865 527.862 151.633 519.759 147.903 511.137C143.896 501.876 138.199 493.91 133 489V571.267C133 574.508 133.847 577.075 135.543 578.965C137.324 580.856 139.571 582.296 142.284 583.286L122.188 583.286C124.901 582.296 127.107 580.856 128.802 578.965C130.498 576.984 131.347 574.418 131.347 571.267V487.707C124.726 482.44 117.647 480.532 111 481.934Z" fill="black"/>
<path d="M307 576.62L313.4 562.62H314.86L321.26 576.62H319.7L313.82 563.48H314.42L308.54 576.62H307ZM309.52 572.88L309.96 571.68H318.1L318.54 572.88H309.52Z" fill="black"/>
<path d="M327.576 576.62V562.62H333.276C334.769 562.62 336.076 562.92 337.196 563.52C338.329 564.107 339.209 564.927 339.836 565.98C340.463 567.033 340.776 568.247 340.776 569.62C340.776 570.993 340.463 572.207 339.836 573.26C339.209 574.313 338.329 575.14 337.196 575.74C336.076 576.327 334.769 576.62 333.276 576.62H327.576ZM329.056 575.34H333.196C334.436 575.34 335.509 575.1 336.416 574.62C337.336 574.127 338.049 573.453 338.556 572.6C339.063 571.733 339.316 570.74 339.316 569.62C339.316 568.487 339.063 567.493 338.556 566.64C338.049 565.787 337.336 565.12 336.416 564.64C335.509 564.147 334.436 563.9 333.196 563.9H329.056V575.34Z" fill="black"/>
<path d="M351.669 576.62L345.469 562.62H347.069L352.869 575.8H351.989L357.829 562.62H359.329L353.129 576.62H351.669Z" fill="black"/>
<path d="M371.364 576.74C370.311 576.74 369.331 576.567 368.424 576.22C367.531 575.86 366.751 575.36 366.084 574.72C365.431 574.067 364.917 573.313 364.544 572.46C364.184 571.593 364.004 570.647 364.004 569.62C364.004 568.593 364.184 567.653 364.544 566.8C364.917 565.933 365.431 565.18 366.084 564.54C366.751 563.887 367.531 563.387 368.424 563.04C369.317 562.68 370.297 562.5 371.364 562.5C372.417 562.5 373.391 562.68 374.284 563.04C375.177 563.387 375.951 563.88 376.604 564.52C377.271 565.16 377.784 565.913 378.144 566.78C378.517 567.647 378.704 568.593 378.704 569.62C378.704 570.647 378.517 571.593 378.144 572.46C377.784 573.327 377.271 574.08 376.604 574.72C375.951 575.36 375.177 575.86 374.284 576.22C373.391 576.567 372.417 576.74 371.364 576.74ZM371.364 575.42C372.204 575.42 372.977 575.28 373.684 575C374.404 574.707 375.024 574.3 375.544 573.78C376.077 573.247 376.491 572.633 376.784 571.94C377.077 571.233 377.224 570.46 377.224 569.62C377.224 568.78 377.077 568.013 376.784 567.32C376.491 566.613 376.077 566 375.544 565.48C375.024 564.947 374.404 564.54 373.684 564.26C372.977 563.967 372.204 563.82 371.364 563.82C370.524 563.82 369.744 563.967 369.024 564.26C368.304 564.54 367.677 564.947 367.144 565.48C366.624 566 366.211 566.613 365.904 567.32C365.611 568.013 365.464 568.78 365.464 569.62C365.464 570.447 365.611 571.213 365.904 571.92C366.211 572.627 366.624 573.247 367.144 573.78C367.677 574.3 368.304 574.707 369.024 575C369.744 575.28 370.524 575.42 371.364 575.42Z" fill="black"/>
<path d="M392.101 576.74C391.048 576.74 390.075 576.567 389.181 576.22C388.288 575.86 387.515 575.36 386.861 574.72C386.208 574.08 385.695 573.327 385.321 572.46C384.961 571.593 384.781 570.647 384.781 569.62C384.781 568.593 384.961 567.647 385.321 566.78C385.695 565.913 386.208 565.16 386.861 564.52C387.528 563.88 388.308 563.387 389.201 563.04C390.095 562.68 391.068 562.5 392.121 562.5C393.135 562.5 394.088 562.673 394.981 563.02C395.875 563.353 396.628 563.86 397.241 564.54L396.301 565.48C395.728 564.893 395.095 564.473 394.401 564.22C393.708 563.953 392.961 563.82 392.161 563.82C391.321 563.82 390.541 563.967 389.821 564.26C389.101 564.54 388.475 564.947 387.941 565.48C387.408 566 386.988 566.613 386.681 567.32C386.388 568.013 386.241 568.78 386.241 569.62C386.241 570.46 386.388 571.233 386.681 571.94C386.988 572.633 387.408 573.247 387.941 573.78C388.475 574.3 389.101 574.707 389.821 575C390.541 575.28 391.321 575.42 392.161 575.42C392.961 575.42 393.708 575.287 394.401 575.02C395.095 574.753 395.728 574.327 396.301 573.74L397.241 574.68C396.628 575.36 395.875 575.873 394.981 576.22C394.088 576.567 393.128 576.74 392.101 576.74Z" fill="black"/>
<path d="M401.805 576.62L408.205 562.62H409.665L416.065 576.62H414.505L408.625 563.48H409.225L403.345 576.62H401.805ZM404.325 572.88L404.765 571.68H412.905L413.345 572.88H404.325Z" fill="black"/>
<path d="M428.265 576.74C427.212 576.74 426.239 576.567 425.345 576.22C424.452 575.86 423.679 575.36 423.025 574.72C422.372 574.08 421.859 573.327 421.485 572.46C421.125 571.593 420.945 570.647 420.945 569.62C420.945 568.593 421.125 567.647 421.485 566.78C421.859 565.913 422.372 565.16 423.025 564.52C423.692 563.88 424.472 563.387 425.365 563.04C426.259 562.68 427.232 562.5 428.285 562.5C429.299 562.5 430.252 562.673 431.145 563.02C432.039 563.353 432.792 563.86 433.405 564.54L432.465 565.48C431.892 564.893 431.259 564.473 430.565 564.22C429.872 563.953 429.125 563.82 428.325 563.82C427.485 563.82 426.705 563.967 425.985 564.26C425.265 564.54 424.639 564.947 424.105 565.48C423.572 566 423.152 566.613 422.845 567.32C422.552 568.013 422.405 568.78 422.405 569.62C422.405 570.46 422.552 571.233 422.845 571.94C423.152 572.633 423.572 573.247 424.105 573.78C424.639 574.3 425.265 574.707 425.985 575C426.705 575.28 427.485 575.42 428.325 575.42C429.125 575.42 429.872 575.287 430.565 575.02C431.259 574.753 431.892 574.327 432.465 573.74L433.405 574.68C432.792 575.36 432.039 575.873 431.145 576.22C430.252 576.567 429.292 576.74 428.265 576.74Z" fill="black"/>
<path d="M440.56 576.62V562.62H442.04V576.62H440.56Z" fill="black"/>
<path d="M448.355 576.62L454.755 562.62H456.215L462.615 576.62H461.055L455.175 563.48H455.775L449.895 576.62H448.355ZM450.875 572.88L451.315 571.68H459.455L459.895 572.88H450.875Z" fill="black"/>
<path d="M478.166 576.62V562.62H483.406C484.592 562.62 485.612 562.813 486.466 563.2C487.319 563.573 487.972 564.12 488.426 564.84C488.892 565.547 489.126 566.407 489.126 567.42C489.126 568.407 488.892 569.26 488.426 569.98C487.972 570.687 487.319 571.233 486.466 571.62C485.612 572.007 484.592 572.2 483.406 572.2H478.986L479.646 571.5V576.62H478.166ZM479.646 571.62L478.986 570.9H483.366C484.766 570.9 485.826 570.6 486.546 570C487.279 569.387 487.646 568.527 487.646 567.42C487.646 566.3 487.279 565.433 486.546 564.82C485.826 564.207 484.766 563.9 483.366 563.9H478.986L479.646 563.2V571.62Z" fill="black"/>
<path d="M496.326 576.62V562.62H501.566C502.753 562.62 503.773 562.813 504.626 563.2C505.479 563.573 506.133 564.12 506.586 564.84C507.053 565.547 507.286 566.407 507.286 567.42C507.286 568.407 507.053 569.26 506.586 569.98C506.133 570.687 505.479 571.233 504.626 571.62C503.773 571.993 502.753 572.18 501.566 572.18H497.146L497.806 571.5V576.62H496.326ZM505.886 576.62L502.286 571.54H503.886L507.506 576.62H505.886ZM497.806 571.62L497.146 570.92H501.526C502.926 570.92 503.986 570.613 504.706 570C505.439 569.387 505.806 568.527 505.806 567.42C505.806 566.3 505.439 565.433 504.706 564.82C503.986 564.207 502.926 563.9 501.526 563.9H497.146L497.806 563.2V571.62Z" fill="black"/>
<path d="M516.099 568.88H523.499V570.14H516.099V568.88ZM516.259 575.34H524.679V576.62H514.779V562.62H524.379V563.9H516.259V575.34Z" fill="black"/>
<path d="M535.943 576.62L529.743 562.62H531.343L537.143 575.8H536.263L542.103 562.62H543.603L537.403 576.62H535.943Z" fill="black"/>
<path d="M549.635 576.62V562.62H551.115V576.62H549.635Z" fill="black"/>
<path d="M559.67 576.62V562.62H565.37C566.863 562.62 568.17 562.92 569.29 563.52C570.423 564.107 571.303 564.927 571.93 565.98C572.556 567.033 572.87 568.247 572.87 569.62C572.87 570.993 572.556 572.207 571.93 573.26C571.303 574.313 570.423 575.14 569.29 575.74C568.17 576.327 566.863 576.62 565.37 576.62H559.67ZM561.15 575.34H565.29C566.53 575.34 567.603 575.1 568.51 574.62C569.43 574.127 570.143 573.453 570.65 572.6C571.156 571.733 571.41 570.74 571.41 569.62C571.41 568.487 571.156 567.493 570.65 566.64C570.143 565.787 569.43 565.12 568.51 564.64C567.603 564.147 566.53 563.9 565.29 563.9H561.15V575.34Z" fill="black"/>
<path d="M581.513 568.88H588.913V570.14H581.513V568.88ZM581.673 575.34H590.093V576.62H580.193V562.62H589.793V563.9H581.673V575.34Z" fill="black"/>
<path d="M597.572 576.62V562.62H598.792L608.452 574.78H607.812V562.62H609.272V576.62H608.052L598.412 564.46H599.052V576.62H597.572Z" fill="black"/>
<path d="M623.922 576.74C622.868 576.74 621.895 576.567 621.002 576.22C620.108 575.86 619.335 575.36 618.682 574.72C618.028 574.08 617.515 573.327 617.142 572.46C616.782 571.593 616.602 570.647 616.602 569.62C616.602 568.593 616.782 567.647 617.142 566.78C617.515 565.913 618.028 565.16 618.682 564.52C619.348 563.88 620.128 563.387 621.022 563.04C621.915 562.68 622.888 562.5 623.942 562.5C624.955 562.5 625.908 562.673 626.802 563.02C627.695 563.353 628.448 563.86 629.062 564.54L628.122 565.48C627.548 564.893 626.915 564.473 626.222 564.22C625.528 563.953 624.782 563.82 623.982 563.82C623.142 563.82 622.362 563.967 621.642 564.26C620.922 564.54 620.295 564.947 619.762 565.48C619.228 566 618.808 566.613 618.502 567.32C618.208 568.013 618.062 568.78 618.062 569.62C618.062 570.46 618.208 571.233 618.502 571.94C618.808 572.633 619.228 573.247 619.762 573.78C620.295 574.3 620.922 574.707 621.642 575C622.362 575.28 623.142 575.42 623.982 575.42C624.782 575.42 625.528 575.287 626.222 575.02C626.915 574.753 627.548 574.327 628.122 573.74L629.062 574.68C628.448 575.36 627.695 575.873 626.802 576.22C625.908 576.567 624.948 576.74 623.922 576.74Z" fill="black"/>
<path d="M636.217 576.62V562.62H637.697V576.62H636.217Z" fill="black"/>
<path d="M644.012 576.62L650.412 562.62H651.872L658.272 576.62H656.712L650.832 563.48H651.432L645.552 576.62H644.012ZM646.532 572.88L646.972 571.68H655.112L655.552 572.88H646.532ZM649.852 561.48L652.592 559H654.492L651.252 561.48H649.852Z" fill="black"/>
<path d="M664.588 576.62V562.62H669.828C671.014 562.62 672.034 562.813 672.888 563.2C673.741 563.573 674.394 564.12 674.848 564.84C675.314 565.547 675.548 566.407 675.548 567.42C675.548 568.407 675.314 569.26 674.848 569.98C674.394 570.687 673.741 571.233 672.888 571.62C672.034 571.993 671.014 572.18 669.828 572.18H665.408L666.068 571.5V576.62H664.588ZM674.148 576.62L670.548 571.54H672.148L675.768 576.62H674.148ZM666.068 571.62L665.408 570.92H669.788C671.188 570.92 672.248 570.613 672.968 570C673.701 569.387 674.068 568.527 674.068 567.42C674.068 566.3 673.701 565.433 672.968 564.82C672.248 564.207 671.188 563.9 669.788 563.9H665.408L666.068 563.2V571.62Z" fill="black"/>
<path d="M683.041 576.62V562.62H684.521V576.62H683.041Z" fill="black"/>
<path d="M690.836 576.62L697.236 562.62H698.696L705.096 576.62H703.536L697.656 563.48H698.256L692.376 576.62H690.836ZM693.356 572.88L693.796 571.68H701.936L702.376 572.88H693.356Z" fill="black"/>
<path d="M721.966 568.88H729.366V570.14H721.966V568.88ZM722.126 575.34H730.546V576.62H720.646V562.62H730.246V563.9H722.126V575.34Z" fill="black"/>
<path d="M741.885 576.74C740.845 576.74 739.845 576.573 738.885 576.24C737.938 575.893 737.205 575.453 736.685 574.92L737.265 573.78C737.759 574.26 738.418 574.667 739.245 575C740.085 575.32 740.965 575.48 741.885 575.48C742.765 575.48 743.478 575.373 744.025 575.16C744.585 574.933 744.992 574.633 745.245 574.26C745.512 573.887 745.645 573.473 745.645 573.02C745.645 572.473 745.485 572.033 745.165 571.7C744.858 571.367 744.452 571.107 743.945 570.92C743.438 570.72 742.879 570.547 742.265 570.4C741.652 570.253 741.039 570.1 740.425 569.94C739.812 569.767 739.245 569.54 738.725 569.26C738.218 568.98 737.805 568.613 737.485 568.16C737.179 567.693 737.025 567.087 737.025 566.34C737.025 565.647 737.205 565.013 737.565 564.44C737.938 563.853 738.505 563.387 739.265 563.04C740.025 562.68 740.998 562.5 742.185 562.5C742.972 562.5 743.752 562.613 744.525 562.84C745.298 563.053 745.965 563.353 746.525 563.74L746.025 564.92C745.425 564.52 744.785 564.227 744.105 564.04C743.438 563.853 742.792 563.76 742.165 563.76C741.325 563.76 740.632 563.873 740.085 564.1C739.538 564.327 739.132 564.633 738.865 565.02C738.612 565.393 738.485 565.82 738.485 566.3C738.485 566.847 738.638 567.287 738.945 567.62C739.265 567.953 739.678 568.213 740.185 568.4C740.705 568.587 741.272 568.753 741.885 568.9C742.498 569.047 743.105 569.207 743.705 569.38C744.319 569.553 744.878 569.78 745.385 570.06C745.905 570.327 746.318 570.687 746.625 571.14C746.945 571.593 747.105 572.187 747.105 572.92C747.105 573.6 746.918 574.233 746.545 574.82C746.172 575.393 745.598 575.86 744.825 576.22C744.065 576.567 743.085 576.74 741.885 576.74Z" fill="black"/>
<path d="M754.33 576.62V562.62H759.57C760.757 562.62 761.777 562.813 762.63 563.2C763.483 563.573 764.137 564.12 764.59 564.84C765.057 565.547 765.29 566.407 765.29 567.42C765.29 568.407 765.057 569.26 764.59 569.98C764.137 570.687 763.483 571.233 762.63 571.62C761.777 572.007 760.757 572.2 759.57 572.2H755.15L755.81 571.5V576.62H754.33ZM755.81 571.62L755.15 570.9H759.53C760.93 570.9 761.99 570.6 762.71 570C763.443 569.387 763.81 568.527 763.81 567.42C763.81 566.3 763.443 565.433 762.71 564.82C761.99 564.207 760.93 563.9 759.53 563.9H755.15L755.81 563.2V571.62Z" fill="black"/>
<path d="M773.81 568.88H781.21V570.14H773.81V568.88ZM773.97 575.34H782.39V576.62H772.49V562.62H782.09V563.9H773.97V575.34Z" fill="black"/>
<path d="M795.91 576.74C794.857 576.74 793.883 576.567 792.99 576.22C792.097 575.86 791.323 575.36 790.67 574.72C790.016 574.08 789.503 573.327 789.13 572.46C788.77 571.593 788.59 570.647 788.59 569.62C788.59 568.593 788.77 567.647 789.13 566.78C789.503 565.913 790.016 565.16 790.67 564.52C791.336 563.88 792.117 563.387 793.01 563.04C793.903 562.68 794.877 562.5 795.93 562.5C796.943 562.5 797.897 562.673 798.79 563.02C799.683 563.353 800.437 563.86 801.05 564.54L800.11 565.48C799.536 564.893 798.903 564.473 798.21 564.22C797.517 563.953 796.77 563.82 795.97 563.82C795.13 563.82 794.35 563.967 793.63 564.26C792.91 564.54 792.283 564.947 791.75 565.48C791.217 566 790.797 566.613 790.49 567.32C790.197 568.013 790.05 568.78 790.05 569.62C790.05 570.46 790.197 571.233 790.49 571.94C790.797 572.633 791.217 573.247 791.75 573.78C792.283 574.3 792.91 574.707 793.63 575C794.35 575.28 795.13 575.42 795.97 575.42C796.77 575.42 797.517 575.287 798.21 575.02C798.903 574.753 799.536 574.327 800.11 573.74L801.05 574.68C800.437 575.36 799.683 575.873 798.79 576.22C797.897 576.567 796.937 576.74 795.91 576.74Z" fill="black"/>
<path d="M808.205 576.62V562.62H809.685V576.62H808.205Z" fill="black"/>
<path d="M816 576.62L822.4 562.62H823.86L830.26 576.62H828.7L822.82 563.48H823.42L817.54 576.62H816ZM818.52 572.88L818.96 571.68H827.1L827.54 572.88H818.52Z" fill="black"/>
<path d="M836.576 576.62V562.62H838.056V575.34H845.896V576.62H836.576Z" fill="black"/>
<path d="M852.353 576.62V562.62H853.833V576.62H852.353Z" fill="black"/>
<path d="M861.008 576.62V575.6L870.728 563.34L870.888 563.9H861.148V562.62H872.248V563.64L862.548 575.9L862.368 575.34H872.488V576.62H861.008Z" fill="black"/>
<path d="M877.176 576.62L883.576 562.62H885.036L891.436 576.62H889.876L883.996 563.48H884.596L878.716 576.62H877.176ZM879.696 572.88L880.136 571.68H888.276L888.716 572.88H879.696Z" fill="black"/>
<path d="M897.752 576.62V562.62H903.452C904.945 562.62 906.252 562.92 907.372 563.52C908.505 564.107 909.385 564.927 910.012 565.98C910.638 567.033 910.952 568.247 910.952 569.62C910.952 570.993 910.638 572.207 910.012 573.26C909.385 574.313 908.505 575.14 907.372 575.74C906.252 576.327 904.945 576.62 903.452 576.62H897.752ZM899.232 575.34H903.372C904.612 575.34 905.685 575.1 906.592 574.62C907.512 574.127 908.225 573.453 908.732 572.6C909.238 571.733 909.492 570.74 909.492 569.62C909.492 568.487 909.238 567.493 908.732 566.64C908.225 565.787 907.512 565.12 906.592 564.64C905.685 564.147 904.612 563.9 903.372 563.9H899.232V575.34Z" fill="black"/>
<path d="M915.84 576.62L922.24 562.62H923.7L930.1 576.62H928.54L922.66 563.48H923.26L917.38 576.62H915.84ZM918.36 572.88L918.8 571.68H926.94L927.38 572.88H918.36Z" fill="black"/>
</svg>
