<svg width="1080" height="1080" viewBox="0 0 1080 1080" fill="none" xmlns="http://www.w3.org/2000/svg">
<path d="M281 362.897C341.28 340.297 391.638 386.231 417.975 439.88C427.236 458.747 436.894 481.72 447.071 505.939L448.565 509.503C454.796 524.337 460.231 538.71 466.871 553.725L580.194 383.697L622.827 383.697C615.335 386.168 610.297 390.426 607.713 396.467C605.388 402.507 604.224 409.235 604.224 416.648V453.236C610.487 449.258 617.127 445.76 624.145 442.745C641.21 435.415 659.457 431.751 678.885 431.751C686.237 431.751 693.983 432.295 702.122 433.381C710.26 434.195 718.267 435.688 726.143 437.86C734.282 440.032 742.028 442.882 749.38 446.411C756.731 449.94 763.294 454.151 769.07 459.037V499.76C763.556 491.616 757.254 483.742 750.165 476.14C743.077 468.539 735.333 461.886 726.932 456.185C718.53 450.212 709.603 445.597 700.152 442.339C690.701 438.81 680.986 437.046 671.01 437.046C654.732 437.046 640.29 441.119 627.688 449.263C615.086 457.408 604.452 467.997 595.788 481.028C587.125 493.788 580.562 508.042 576.098 523.788C571.635 539.262 569.404 554.467 569.404 569.399C569.404 585.688 572.029 602.386 577.28 619.489C577.636 620.595 578 621.695 578.373 622.787L578.992 541.352C583.591 519.913 591.816 499.354 604.224 482.204V638.659C604.224 646.073 605.388 652.938 607.713 659.253C610.297 665.294 615.334 669.551 622.827 672.023H604.457C613.506 683.327 624.004 692.831 635.959 700.529C642.095 704.289 648.551 707.234 655.326 709.367C642.573 708.944 629.155 707.111 615.209 703.939C601.849 696.939 589.991 688.204 579.642 677.724C567.04 664.693 557.063 649.488 549.711 632.113C542.361 614.466 538.685 595.597 538.685 575.507C538.685 555.146 542.361 536.277 549.711 518.902C557.037 501.318 566.97 486.158 579.508 473.426L580.109 394.587L470.525 560.631C470.601 560.8 470.678 560.971 470.754 561.14L473.34 566.847C475.974 572.62 478.648 578.331 481.361 583.939C506.802 636.518 520.279 668.269 551.832 688.041C569.985 699.416 601.628 710.834 628.461 714.764C654.743 718.612 681.986 718.037 705.139 710.926C709.881 709.387 714.484 707.574 718.933 705.467C722.914 703.69 726.763 701.64 730.475 699.309C731.72 698.482 732.924 697.622 734.093 696.741C734.118 696.724 734.143 696.708 734.168 696.691L734.165 696.686C739.871 692.372 744.682 687.411 748.591 681.797C753.579 675.01 756.074 667.406 756.074 658.99V649.625C756.336 646.367 756.467 643.244 756.467 640.258C756.467 636.457 756.206 632.655 755.681 628.854C755.418 624.782 754.629 621.117 753.316 617.86C752.003 614.331 750.166 611.207 747.803 608.493C745.44 605.778 742.158 603.741 737.958 602.384H799C792.699 604.556 788.104 608.629 785.216 614.601C782.328 620.302 780.884 626.276 780.884 632.52V720.077C779.571 717.905 777.997 715.46 776.159 712.746C774.584 710.031 772.746 707.451 770.646 705.008C768.546 702.565 766.312 700.528 763.949 698.899C761.587 697.271 758.961 696.457 756.074 696.457C754.761 696.457 753.447 696.73 752.135 697.273C750.823 697.815 749.51 698.357 748.198 698.899C736.909 704.601 725.749 709.489 714.722 713.562C712.592 714.296 710.426 714.956 708.228 715.548C696.282 719.394 683.333 721.51 670.037 722.204C638.079 724.802 604.602 720.958 574.627 711.844C546.153 703.185 519.814 689.29 501.873 672.023C491.841 662.367 482.364 651.697 473.524 636.519C457.53 609.054 444.07 576.638 429.266 539.628C428.175 536.896 424.951 528.809 423.842 526.027C414.66 502.98 404.812 478.264 393.445 451.967C381.235 423.722 363.877 399.426 348.035 384.45V635.364C348.035 645.249 350.617 653.077 355.785 658.844C361.211 664.609 368.058 669.002 376.325 672.023L315.09 672.023C323.358 669.002 330.078 664.61 335.245 658.844C340.413 652.803 342.997 644.975 342.997 635.364V380.506C322.824 364.441 301.255 358.622 281 362.897Z" fill="#AB545C"/>
</svg>
