<svg width="1080" height="1080" viewBox="0 0 1080 1080" fill="none" xmlns="http://www.w3.org/2000/svg">
<rect width="1080" height="1080" fill="url(#paint0_linear_0_3)"/>
<path d="M160.968 562.5H166.428L187.358 601.955L206.143 562.5H211.473V608H206.143V566.725L186.448 608H184.563L162.723 566.985V608H160.968V562.5ZM243.472 608.65C231.252 608.65 225.142 602.475 225.142 590.125V562.5H230.472V590.84C230.472 596.343 231.729 600.373 234.242 602.93C236.756 605.487 240.071 606.765 244.187 606.765C248.651 606.765 252.226 605.357 254.912 602.54C257.599 599.68 258.942 595.607 258.942 590.32V562.5H260.697V590.255C260.697 596.365 259.137 600.958 256.017 604.035C252.897 607.112 248.716 608.65 243.472 608.65ZM274.21 562.5H293.255C298.932 562.5 303.33 563.648 306.45 565.945C309.613 568.198 311.195 571.383 311.195 575.5C311.195 579.053 310.003 581.935 307.62 584.145C305.28 586.312 301.943 587.677 297.61 588.24L310.09 608H303.785L291.435 588.5H279.54V608H274.21V562.5ZM293.255 586.94C297.415 586.94 300.492 586.008 302.485 584.145C304.522 582.282 305.54 579.4 305.54 575.5C305.54 571.6 304.522 568.718 302.485 566.855C300.492 564.992 297.415 564.06 293.255 564.06H279.54V586.94H293.255ZM339.211 562.5H343.371L361.896 608H356.111L349.936 592.855H329.006L322.896 608H320.946L339.211 562.5ZM349.221 591.1L339.406 566.92L329.656 591.1H349.221ZM372.281 562.5H391.326C397.003 562.5 401.401 563.648 404.521 565.945C407.684 568.198 409.266 571.383 409.266 575.5C409.266 579.053 408.074 581.935 405.691 584.145C403.351 586.312 400.014 587.677 395.681 588.24L408.161 608H401.856L389.506 588.5H377.611V608H372.281V562.5ZM391.326 586.94C395.486 586.94 398.563 586.008 400.556 584.145C402.593 582.282 403.611 579.4 403.611 575.5C403.611 571.6 402.593 568.718 400.556 566.855C398.563 564.992 395.486 564.06 391.326 564.06H377.611V586.94H391.326ZM444.025 608.65C439.735 608.65 435.662 607.762 431.805 605.985C427.992 604.208 424.893 601.565 422.51 598.055C420.17 594.502 419 590.255 419 585.315C419 580.375 420.192 576.15 422.575 572.64C424.958 569.087 428.057 566.4 431.87 564.58C435.727 562.76 439.8 561.85 444.09 561.85C448.423 561.85 452.497 562.76 456.31 564.58C460.167 566.4 463.265 569.087 465.605 572.64C467.988 576.15 469.18 580.375 469.18 585.315C469.18 590.255 467.988 594.48 465.605 597.99C463.222 601.5 460.102 604.165 456.245 605.985C452.432 607.762 448.358 608.65 444.025 608.65ZM444.09 606.895C447.86 606.895 451.218 605.985 454.165 604.165C457.112 602.302 459.408 599.745 461.055 596.495C462.702 593.202 463.525 589.475 463.525 585.315C463.525 581.198 462.68 577.493 460.99 574.2C459.343 570.863 457.047 568.263 454.1 566.4C451.153 564.537 447.817 563.605 444.09 563.605C440.363 563.605 437.027 564.558 434.08 566.465C431.133 568.328 428.815 570.907 427.125 574.2C425.478 577.493 424.655 581.198 424.655 585.315C424.655 589.432 425.478 593.137 427.125 596.43C428.772 599.723 431.068 602.302 434.015 604.165C436.962 605.985 440.32 606.895 444.09 606.895ZM524.817 608.65C520.094 608.65 515.869 607.675 512.142 605.725C508.459 603.732 505.577 600.958 503.497 597.405C501.417 593.852 500.377 589.822 500.377 585.315C500.377 580.808 501.417 576.778 503.497 573.225C505.577 569.672 508.48 566.92 512.207 564.97C515.934 562.977 520.159 561.98 524.882 561.98C527.525 561.98 530.039 562.37 532.422 563.15C534.805 563.887 536.82 564.905 538.467 566.205C540.157 567.462 541.349 568.87 542.042 570.43L539.702 571.275C538.532 568.718 536.669 566.768 534.112 565.425C531.599 564.038 528.739 563.345 525.532 563.345C522.109 563.345 518.902 564.277 515.912 566.14C512.922 567.96 510.517 570.538 508.697 573.875C506.92 577.168 506.032 580.938 506.032 585.185C506.032 589.475 506.92 593.31 508.697 596.69C510.474 600.027 512.857 602.627 515.847 604.49C518.837 606.31 522.044 607.22 525.467 607.22C527.98 607.22 530.45 606.765 532.877 605.855C535.304 604.945 537.037 603.797 538.077 602.41V589.15H543.407V593.7C543.407 596.777 542.562 599.463 540.872 601.76C539.182 604.013 536.929 605.725 534.112 606.895C531.295 608.065 528.197 608.65 524.817 608.65ZM578.151 608.65C573.861 608.65 569.788 607.762 565.931 605.985C562.118 604.208 559.019 601.565 556.636 598.055C554.296 594.502 553.126 590.255 553.126 585.315C553.126 580.375 554.318 576.15 556.701 572.64C559.084 569.087 562.183 566.4 565.996 564.58C569.853 562.76 573.926 561.85 578.216 561.85C582.549 561.85 586.623 562.76 590.436 564.58C594.293 566.4 597.391 569.087 599.731 572.64C602.114 576.15 603.306 580.375 603.306 585.315C603.306 590.255 602.114 594.48 599.731 597.99C597.348 601.5 594.228 604.165 590.371 605.985C586.558 607.762 582.484 608.65 578.151 608.65ZM578.216 606.895C581.986 606.895 585.344 605.985 588.291 604.165C591.238 602.302 593.534 599.745 595.181 596.495C596.828 593.202 597.651 589.475 597.651 585.315C597.651 581.198 596.806 577.493 595.116 574.2C593.469 570.863 591.173 568.263 588.226 566.4C585.279 564.537 581.943 563.605 578.216 563.605C574.489 563.605 571.153 564.558 568.206 566.465C565.259 568.328 562.941 570.907 561.251 574.2C559.604 577.493 558.781 581.198 558.781 585.315C558.781 589.432 559.604 593.137 561.251 596.43C562.898 599.723 565.194 602.302 568.141 604.165C571.088 605.985 574.446 606.895 578.216 606.895ZM614.381 562.5H619.646L649.221 599.355V562.5H650.976V608H649.351L616.136 566.79V608H614.381V562.5ZM687.142 607.285C690.348 607.285 693.208 606.613 695.722 605.27C698.278 603.883 700.142 601.912 701.312 599.355L703.652 600.2C702.655 602.41 700.727 604.317 697.867 605.92C695.05 607.48 691.8 608.368 688.117 608.585L686.947 610.99C689.287 610.86 691.063 611.315 692.277 612.355C693.533 613.438 694.162 614.76 694.162 616.32C694.162 618.097 693.577 619.483 692.407 620.48C691.28 621.52 689.85 622.04 688.117 622.04C686.903 622.04 685.69 621.78 684.477 621.26C683.263 620.74 682.137 619.96 681.097 618.92L681.682 618.075C683.242 619.115 684.607 619.635 685.777 619.635C686.903 619.635 687.792 619.245 688.442 618.465C689.092 617.728 689.417 616.862 689.417 615.865C689.417 614.868 689.07 614.002 688.377 613.265C687.727 612.572 686.752 612.225 685.452 612.225C684.888 612.225 684.433 612.268 684.087 612.355L685.907 608.65C681.27 608.563 677.132 607.523 673.492 605.53C669.895 603.537 667.078 600.785 665.042 597.275C663.048 593.765 662.052 589.778 662.052 585.315C662.052 580.808 663.092 576.778 665.172 573.225C667.252 569.672 670.155 566.92 673.882 564.97C677.608 562.977 681.833 561.98 686.557 561.98C689.2 561.98 691.713 562.37 694.097 563.15C696.48 563.887 698.495 564.905 700.142 566.205C701.832 567.462 703.023 568.87 703.717 570.43L701.377 571.275C700.207 568.718 698.343 566.768 695.787 565.425C693.273 564.038 690.413 563.345 687.207 563.345C683.827 563.345 680.642 564.277 677.652 566.14C674.705 567.96 672.322 570.538 670.502 573.875C668.725 577.168 667.837 580.938 667.837 585.185C667.837 589.475 668.725 593.31 670.502 596.69C672.278 600.027 674.64 602.627 677.587 604.49C680.577 606.353 683.762 607.285 687.142 607.285ZM728.513 562.5H732.673L751.198 608H745.413L739.238 592.855H718.308L712.198 608H710.248L728.513 562.5ZM738.523 591.1L728.708 566.92L718.958 591.1H738.523ZM761.583 562.5H766.913V606.245H791.808V608H761.583V562.5ZM792.45 562.5H798.235L814.875 603.385L831.255 562.5H833.205L814.94 608H810.975L792.45 562.5ZM842.96 562.5H874.485V564.255H848.29V583.625H868.44V585.38H848.29V606.245H874.485V608H842.96V562.5ZM900.225 608.715C896.455 608.715 893.032 608 889.955 606.57C886.878 605.14 884.755 603.082 883.585 600.395L886.055 599.55C887.138 602.063 888.958 603.927 891.515 605.14C894.115 606.353 897.062 606.96 900.355 606.96C902.652 606.96 904.732 606.592 906.595 605.855C908.458 605.075 909.932 603.992 911.015 602.605C912.142 601.218 912.705 599.615 912.705 597.795C912.705 595.932 912.185 594.415 911.145 593.245C910.148 592.032 908.783 591.057 907.05 590.32C905.36 589.54 903.085 588.738 900.225 587.915C896.672 586.918 893.79 585.965 891.58 585.055C889.37 584.145 887.485 582.823 885.925 581.09C884.365 579.313 883.585 577.038 883.585 574.265C883.585 571.665 884.43 569.433 886.12 567.57C887.81 565.663 890.02 564.233 892.75 563.28C895.48 562.283 898.362 561.785 901.395 561.785C905.165 561.785 908.545 562.5 911.535 563.93C914.568 565.36 916.67 567.418 917.84 570.105L915.37 570.95C914.287 568.393 912.467 566.53 909.91 565.36C907.397 564.147 904.515 563.54 901.265 563.54C897.755 563.54 894.808 564.385 892.425 566.075C890.085 567.722 888.915 569.91 888.915 572.64C888.915 574.503 889.413 576.02 890.41 577.19C891.45 578.36 892.793 579.292 894.44 579.985C896.13 580.678 898.448 581.458 901.395 582.325C904.905 583.322 907.765 584.297 909.975 585.25C912.228 586.203 914.135 587.568 915.695 589.345C917.255 591.122 918.035 593.418 918.035 596.235C918.035 598.835 917.19 601.088 915.5 602.995C913.81 604.858 911.6 606.288 908.87 607.285C906.14 608.238 903.258 608.715 900.225 608.715Z" fill="#F5F5F5"/>
<path d="M228.04 645L234.44 631H235.9L242.3 645H240.74L234.86 631.86H235.46L229.58 645H228.04ZM230.56 641.26L231 640.06H239.14L239.58 641.26H230.56ZM248.616 645V631H254.316C255.809 631 257.116 631.3 258.236 631.9C259.369 632.487 260.249 633.307 260.876 634.36C261.503 635.413 261.816 636.627 261.816 638C261.816 639.373 261.503 640.587 260.876 641.64C260.249 642.693 259.369 643.52 258.236 644.12C257.116 644.707 255.809 645 254.316 645H248.616ZM250.096 643.72H254.236C255.476 643.72 256.549 643.48 257.456 643C258.376 642.507 259.089 641.833 259.596 640.98C260.103 640.113 260.356 639.12 260.356 638C260.356 636.867 260.103 635.873 259.596 635.02C259.089 634.167 258.376 633.5 257.456 633.02C256.549 632.527 255.476 632.28 254.236 632.28H250.096V643.72ZM272.709 645L266.509 631H268.109L273.909 644.18H273.029L278.869 631H280.369L274.169 645H272.709ZM292.404 645.12C291.351 645.12 290.371 644.947 289.464 644.6C288.571 644.24 287.791 643.74 287.124 643.1C286.471 642.447 285.957 641.693 285.584 640.84C285.224 639.973 285.044 639.027 285.044 638C285.044 636.973 285.224 636.033 285.584 635.18C285.957 634.313 286.471 633.56 287.124 632.92C287.791 632.267 288.571 631.767 289.464 631.42C290.357 631.06 291.337 630.88 292.404 630.88C293.457 630.88 294.431 631.06 295.324 631.42C296.217 631.767 296.991 632.26 297.644 632.9C298.311 633.54 298.824 634.293 299.184 635.16C299.557 636.027 299.744 636.973 299.744 638C299.744 639.027 299.557 639.973 299.184 640.84C298.824 641.707 298.311 642.46 297.644 643.1C296.991 643.74 296.217 644.24 295.324 644.6C294.431 644.947 293.457 645.12 292.404 645.12ZM292.404 643.8C293.244 643.8 294.017 643.66 294.724 643.38C295.444 643.087 296.064 642.68 296.584 642.16C297.117 641.627 297.531 641.013 297.824 640.32C298.117 639.613 298.264 638.84 298.264 638C298.264 637.16 298.117 636.393 297.824 635.7C297.531 634.993 297.117 634.38 296.584 633.86C296.064 633.327 295.444 632.92 294.724 632.64C294.017 632.347 293.244 632.2 292.404 632.2C291.564 632.2 290.784 632.347 290.064 632.64C289.344 632.92 288.717 633.327 288.184 633.86C287.664 634.38 287.251 634.993 286.944 635.7C286.651 636.393 286.504 637.16 286.504 638C286.504 638.827 286.651 639.593 286.944 640.3C287.251 641.007 287.664 641.627 288.184 642.16C288.717 642.68 289.344 643.087 290.064 643.38C290.784 643.66 291.564 643.8 292.404 643.8ZM313.141 645.12C312.088 645.12 311.115 644.947 310.221 644.6C309.328 644.24 308.555 643.74 307.901 643.1C307.248 642.46 306.735 641.707 306.361 640.84C306.001 639.973 305.821 639.027 305.821 638C305.821 636.973 306.001 636.027 306.361 635.16C306.735 634.293 307.248 633.54 307.901 632.9C308.568 632.26 309.348 631.767 310.241 631.42C311.135 631.06 312.108 630.88 313.161 630.88C314.175 630.88 315.128 631.053 316.021 631.4C316.915 631.733 317.668 632.24 318.281 632.92L317.341 633.86C316.768 633.273 316.135 632.853 315.441 632.6C314.748 632.333 314.001 632.2 313.201 632.2C312.361 632.2 311.581 632.347 310.861 632.64C310.141 632.92 309.515 633.327 308.981 633.86C308.448 634.38 308.028 634.993 307.721 635.7C307.428 636.393 307.281 637.16 307.281 638C307.281 638.84 307.428 639.613 307.721 640.32C308.028 641.013 308.448 641.627 308.981 642.16C309.515 642.68 310.141 643.087 310.861 643.38C311.581 643.66 312.361 643.8 313.201 643.8C314.001 643.8 314.748 643.667 315.441 643.4C316.135 643.133 316.768 642.707 317.341 642.12L318.281 643.06C317.668 643.74 316.915 644.253 316.021 644.6C315.128 644.947 314.168 645.12 313.141 645.12ZM322.845 645L329.245 631H330.705L337.105 645H335.545L329.665 631.86H330.265L324.385 645H322.845ZM325.365 641.26L325.805 640.06H333.945L334.385 641.26H325.365ZM349.305 645.12C348.252 645.12 347.279 644.947 346.385 644.6C345.492 644.24 344.719 643.74 344.065 643.1C343.412 642.46 342.899 641.707 342.525 640.84C342.165 639.973 341.985 639.027 341.985 638C341.985 636.973 342.165 636.027 342.525 635.16C342.899 634.293 343.412 633.54 344.065 632.9C344.732 632.26 345.512 631.767 346.405 631.42C347.299 631.06 348.272 630.88 349.325 630.88C350.339 630.88 351.292 631.053 352.185 631.4C353.079 631.733 353.832 632.24 354.445 632.92L353.505 633.86C352.932 633.273 352.299 632.853 351.605 632.6C350.912 632.333 350.165 632.2 349.365 632.2C348.525 632.2 347.745 632.347 347.025 632.64C346.305 632.92 345.679 633.327 345.145 633.86C344.612 634.38 344.192 634.993 343.885 635.7C343.592 636.393 343.445 637.16 343.445 638C343.445 638.84 343.592 639.613 343.885 640.32C344.192 641.013 344.612 641.627 345.145 642.16C345.679 642.68 346.305 643.087 347.025 643.38C347.745 643.66 348.525 643.8 349.365 643.8C350.165 643.8 350.912 643.667 351.605 643.4C352.299 643.133 352.932 642.707 353.505 642.12L354.445 643.06C353.832 643.74 353.079 644.253 352.185 644.6C351.292 644.947 350.332 645.12 349.305 645.12ZM361.6 645V631H363.08V645H361.6ZM369.395 645L375.795 631H377.255L383.655 645H382.095L376.215 631.86H376.815L370.935 645H369.395ZM371.915 641.26L372.355 640.06H380.495L380.935 641.26H371.915ZM399.206 645V631H404.446C405.632 631 406.652 631.193 407.506 631.58C408.359 631.953 409.012 632.5 409.466 633.22C409.932 633.927 410.166 634.787 410.166 635.8C410.166 636.787 409.932 637.64 409.466 638.36C409.012 639.067 408.359 639.613 407.506 640C406.652 640.387 405.632 640.58 404.446 640.58H400.026L400.686 639.88V645H399.206ZM400.686 640L400.026 639.28H404.406C405.806 639.28 406.866 638.98 407.586 638.38C408.319 637.767 408.686 636.907 408.686 635.8C408.686 634.68 408.319 633.813 407.586 633.2C406.866 632.587 405.806 632.28 404.406 632.28H400.026L400.686 631.58V640ZM417.366 645V631H422.606C423.793 631 424.813 631.193 425.666 631.58C426.519 631.953 427.173 632.5 427.626 633.22C428.093 633.927 428.326 634.787 428.326 635.8C428.326 636.787 428.093 637.64 427.626 638.36C427.173 639.067 426.519 639.613 425.666 640C424.813 640.373 423.793 640.56 422.606 640.56H418.186L418.846 639.88V645H417.366ZM426.926 645L423.326 639.92H424.926L428.546 645H426.926ZM418.846 640L418.186 639.3H422.566C423.966 639.3 425.026 638.993 425.746 638.38C426.479 637.767 426.846 636.907 426.846 635.8C426.846 634.68 426.479 633.813 425.746 633.2C425.026 632.587 423.966 632.28 422.566 632.28H418.186L418.846 631.58V640ZM437.139 637.26H444.539V638.52H437.139V637.26ZM437.299 643.72H445.719V645H435.819V631H445.419V632.28H437.299V643.72ZM456.983 645L450.783 631H452.383L458.183 644.18H457.303L463.143 631H464.643L458.443 645H456.983ZM470.675 645V631H472.155V645H470.675ZM480.71 645V631H486.41C487.903 631 489.21 631.3 490.33 631.9C491.463 632.487 492.343 633.307 492.97 634.36C493.596 635.413 493.91 636.627 493.91 638C493.91 639.373 493.596 640.587 492.97 641.64C492.343 642.693 491.463 643.52 490.33 644.12C489.21 644.707 487.903 645 486.41 645H480.71ZM482.19 643.72H486.33C487.57 643.72 488.643 643.48 489.55 643C490.47 642.507 491.183 641.833 491.69 640.98C492.196 640.113 492.45 639.12 492.45 638C492.45 636.867 492.196 635.873 491.69 635.02C491.183 634.167 490.47 633.5 489.55 633.02C488.643 632.527 487.57 632.28 486.33 632.28H482.19V643.72ZM502.553 637.26H509.953V638.52H502.553V637.26ZM502.713 643.72H511.133V645H501.233V631H510.833V632.28H502.713V643.72ZM518.612 645V631H519.832L529.492 643.16H528.852V631H530.312V645H529.092L519.452 632.84H520.092V645H518.612ZM544.962 645.12C543.908 645.12 542.935 644.947 542.042 644.6C541.148 644.24 540.375 643.74 539.722 643.1C539.068 642.46 538.555 641.707 538.182 640.84C537.822 639.973 537.642 639.027 537.642 638C537.642 636.973 537.822 636.027 538.182 635.16C538.555 634.293 539.068 633.54 539.722 632.9C540.388 632.26 541.168 631.767 542.062 631.42C542.955 631.06 543.928 630.88 544.982 630.88C545.995 630.88 546.948 631.053 547.842 631.4C548.735 631.733 549.488 632.24 550.102 632.92L549.162 633.86C548.588 633.273 547.955 632.853 547.262 632.6C546.568 632.333 545.822 632.2 545.022 632.2C544.182 632.2 543.402 632.347 542.682 632.64C541.962 632.92 541.335 633.327 540.802 633.86C540.268 634.38 539.848 634.993 539.542 635.7C539.248 636.393 539.102 637.16 539.102 638C539.102 638.84 539.248 639.613 539.542 640.32C539.848 641.013 540.268 641.627 540.802 642.16C541.335 642.68 541.962 643.087 542.682 643.38C543.402 643.66 544.182 643.8 545.022 643.8C545.822 643.8 546.568 643.667 547.262 643.4C547.955 643.133 548.588 642.707 549.162 642.12L550.102 643.06C549.488 643.74 548.735 644.253 547.842 644.6C546.948 644.947 545.988 645.12 544.962 645.12ZM557.257 645V631H558.737V645H557.257ZM565.052 645L571.452 631H572.912L579.312 645H577.752L571.872 631.86H572.472L566.592 645H565.052ZM567.572 641.26L568.012 640.06H576.152L576.592 641.26H567.572ZM570.892 629.86L573.632 627.38H575.532L572.292 629.86H570.892ZM585.628 645V631H590.868C592.054 631 593.074 631.193 593.928 631.58C594.781 631.953 595.434 632.5 595.888 633.22C596.354 633.927 596.588 634.787 596.588 635.8C596.588 636.787 596.354 637.64 595.888 638.36C595.434 639.067 594.781 639.613 593.928 640C593.074 640.373 592.054 640.56 590.868 640.56H586.448L587.108 639.88V645H585.628ZM595.188 645L591.588 639.92H593.188L596.808 645H595.188ZM587.108 640L586.448 639.3H590.828C592.228 639.3 593.288 638.993 594.008 638.38C594.741 637.767 595.108 636.907 595.108 635.8C595.108 634.68 594.741 633.813 594.008 633.2C593.288 632.587 592.228 632.28 590.828 632.28H586.448L587.108 631.58V640ZM604.081 645V631H605.561V645H604.081ZM611.876 645L618.276 631H619.736L626.136 645H624.576L618.696 631.86H619.296L613.416 645H611.876ZM614.396 641.26L614.836 640.06H622.976L623.416 641.26H614.396ZM643.006 637.26H650.406V638.52H643.006V637.26ZM643.166 643.72H651.586V645H641.686V631H651.286V632.28H643.166V643.72ZM662.925 645.12C661.885 645.12 660.885 644.953 659.925 644.62C658.978 644.273 658.245 643.833 657.725 643.3L658.305 642.16C658.798 642.64 659.458 643.047 660.285 643.38C661.125 643.7 662.005 643.86 662.925 643.86C663.805 643.86 664.518 643.753 665.065 643.54C665.625 643.313 666.032 643.013 666.285 642.64C666.552 642.267 666.685 641.853 666.685 641.4C666.685 640.853 666.525 640.413 666.205 640.08C665.898 639.747 665.492 639.487 664.985 639.3C664.478 639.1 663.918 638.927 663.305 638.78C662.692 638.633 662.078 638.48 661.465 638.32C660.852 638.147 660.285 637.92 659.765 637.64C659.258 637.36 658.845 636.993 658.525 636.54C658.218 636.073 658.065 635.467 658.065 634.72C658.065 634.027 658.245 633.393 658.605 632.82C658.978 632.233 659.545 631.767 660.305 631.42C661.065 631.06 662.038 630.88 663.225 630.88C664.012 630.88 664.792 630.993 665.565 631.22C666.338 631.433 667.005 631.733 667.565 632.12L667.065 633.3C666.465 632.9 665.825 632.607 665.145 632.42C664.478 632.233 663.832 632.14 663.205 632.14C662.365 632.14 661.672 632.253 661.125 632.48C660.578 632.707 660.172 633.013 659.905 633.4C659.652 633.773 659.525 634.2 659.525 634.68C659.525 635.227 659.678 635.667 659.985 636C660.305 636.333 660.718 636.593 661.225 636.78C661.745 636.967 662.312 637.133 662.925 637.28C663.538 637.427 664.145 637.587 664.745 637.76C665.358 637.933 665.918 638.16 666.425 638.44C666.945 638.707 667.358 639.067 667.665 639.52C667.985 639.973 668.145 640.567 668.145 641.3C668.145 641.98 667.958 642.613 667.585 643.2C667.212 643.773 666.638 644.24 665.865 644.6C665.105 644.947 664.125 645.12 662.925 645.12ZM675.37 645V631H680.61C681.797 631 682.817 631.193 683.67 631.58C684.523 631.953 685.177 632.5 685.63 633.22C686.097 633.927 686.33 634.787 686.33 635.8C686.33 636.787 686.097 637.64 685.63 638.36C685.177 639.067 684.523 639.613 683.67 640C682.817 640.387 681.797 640.58 680.61 640.58H676.19L676.85 639.88V645H675.37ZM676.85 640L676.19 639.28H680.57C681.97 639.28 683.03 638.98 683.75 638.38C684.483 637.767 684.85 636.907 684.85 635.8C684.85 634.68 684.483 633.813 683.75 633.2C683.03 632.587 681.97 632.28 680.57 632.28H676.19L676.85 631.58V640ZM694.85 637.26H702.25V638.52H694.85V637.26ZM695.01 643.72H703.43V645H693.53V631H703.13V632.28H695.01V643.72ZM716.95 645.12C715.897 645.12 714.923 644.947 714.03 644.6C713.137 644.24 712.363 643.74 711.71 643.1C711.057 642.46 710.543 641.707 710.17 640.84C709.81 639.973 709.63 639.027 709.63 638C709.63 636.973 709.81 636.027 710.17 635.16C710.543 634.293 711.057 633.54 711.71 632.9C712.377 632.26 713.157 631.767 714.05 631.42C714.943 631.06 715.917 630.88 716.97 630.88C717.983 630.88 718.937 631.053 719.83 631.4C720.723 631.733 721.477 632.24 722.09 632.92L721.15 633.86C720.577 633.273 719.943 632.853 719.25 632.6C718.557 632.333 717.81 632.2 717.01 632.2C716.17 632.2 715.39 632.347 714.67 632.64C713.95 632.92 713.323 633.327 712.79 633.86C712.257 634.38 711.837 634.993 711.53 635.7C711.237 636.393 711.09 637.16 711.09 638C711.09 638.84 711.237 639.613 711.53 640.32C711.837 641.013 712.257 641.627 712.79 642.16C713.323 642.68 713.95 643.087 714.67 643.38C715.39 643.66 716.17 643.8 717.01 643.8C717.81 643.8 718.557 643.667 719.25 643.4C719.943 643.133 720.577 642.707 721.15 642.12L722.09 643.06C721.477 643.74 720.723 644.253 719.83 644.6C718.937 644.947 717.977 645.12 716.95 645.12ZM729.245 645V631H730.725V645H729.245ZM737.04 645L743.44 631H744.9L751.3 645H749.74L743.86 631.86H744.46L738.58 645H737.04ZM739.56 641.26L740 640.06H748.14L748.58 641.26H739.56ZM757.616 645V631H759.096V643.72H766.936V645H757.616ZM773.393 645V631H774.873V645H773.393ZM782.048 645V643.98L791.768 631.72L791.928 632.28H782.188V631H793.288V632.02L783.588 644.28L783.408 643.72H793.528V645H782.048ZM798.216 645L804.616 631H806.076L812.476 645H810.916L805.036 631.86H805.636L799.756 645H798.216ZM800.736 641.26L801.176 640.06H809.316L809.756 641.26H800.736ZM818.792 645V631H824.492C825.985 631 827.292 631.3 828.412 631.9C829.545 632.487 830.425 633.307 831.052 634.36C831.678 635.413 831.992 636.627 831.992 638C831.992 639.373 831.678 640.587 831.052 641.64C830.425 642.693 829.545 643.52 828.412 644.12C827.292 644.707 825.985 645 824.492 645H818.792ZM820.272 643.72H824.412C825.652 643.72 826.725 643.48 827.632 643C828.552 642.507 829.265 641.833 829.772 640.98C830.278 640.113 830.532 639.12 830.532 638C830.532 636.867 830.278 635.873 829.772 635.02C829.265 634.167 828.552 633.5 827.632 633.02C826.725 632.527 825.652 632.28 824.412 632.28H820.272V643.72ZM836.88 645L843.28 631H844.74L851.14 645H849.58L843.7 631.86H844.3L838.42 645H836.88ZM839.4 641.26L839.84 640.06H847.98L848.42 641.26H839.4Z" fill="#F5F5F5"/>
<path d="M455 430.934C474.783 423.524 491.31 438.584 499.953 456.174C502.993 462.36 506.162 469.892 509.502 477.833L509.992 479.001C512.037 483.865 513.821 488.577 516 493.5L553.191 437.753L567.183 437.753C564.724 438.563 563.071 439.959 562.223 441.94C561.459 443.92 561.077 446.126 561.077 448.557V460.553C563.133 459.248 565.312 458.102 567.615 457.113C573.216 454.71 579.204 453.509 585.58 453.509C587.993 453.509 590.535 453.687 593.206 454.043C595.877 454.31 598.505 454.799 601.09 455.511C603.761 456.223 606.303 457.158 608.715 458.315C611.128 459.472 613.282 460.853 615.177 462.455V475.807C613.368 473.136 611.3 470.555 608.973 468.062C606.647 465.57 604.105 463.389 601.348 461.52C598.591 459.561 595.661 458.048 592.56 456.98C589.458 455.823 586.27 455.245 582.996 455.245C577.653 455.245 572.914 456.58 568.778 459.25C564.642 461.921 561.152 465.392 558.309 469.665C555.466 473.849 553.312 478.522 551.847 483.684C550.382 488.758 549.65 493.743 549.65 498.639C549.65 503.98 550.511 509.454 552.235 515.062C552.352 515.424 552.471 515.785 552.594 516.143L552.797 489.443C554.306 482.414 557.005 475.674 561.077 470.051V521.347C561.077 523.778 561.459 526.029 562.223 528.099C563.07 530.08 564.724 531.476 567.183 532.286H561.154C564.123 535.993 567.569 539.109 571.492 541.632C573.506 542.865 575.625 543.831 577.848 544.53C573.663 544.391 569.259 543.79 564.682 542.75C560.298 540.455 556.406 537.591 553.01 534.156C548.874 529.883 545.6 524.898 543.187 519.201C540.775 513.415 539.569 507.229 539.569 500.642C539.569 493.966 540.775 487.779 543.187 482.083C545.591 476.317 548.851 471.347 552.966 467.172L553.163 441.324L517.199 495.764C517.224 495.82 517.249 495.876 517.274 495.931L518.123 497.802C518.988 499.695 519.865 501.568 520.756 503.406C529.105 520.645 533.528 531.055 543.883 537.538C549.841 541.268 560.225 545.011 569.032 546.3C577.657 547.561 586.598 547.373 594.196 545.041C595.752 544.537 597.263 543.942 598.723 543.251C600.03 542.669 601.293 541.997 602.511 541.232C602.92 540.961 603.315 540.679 603.699 540.39C603.707 540.385 603.715 540.38 603.723 540.374L603.722 540.372C605.595 538.958 607.174 537.332 608.457 535.491C610.094 533.265 610.912 530.772 610.912 528.013V524.943C610.998 523.875 611.041 522.85 611.041 521.871C611.041 520.625 610.956 519.379 610.783 518.133C610.697 516.798 610.438 515.596 610.007 514.528C609.576 513.371 608.973 512.347 608.198 511.457C607.422 510.567 606.345 509.899 604.967 509.454H625C622.932 510.166 621.424 511.501 620.476 513.459C619.529 515.329 619.055 517.287 619.055 519.334V548.042C618.624 547.33 618.107 546.528 617.504 545.638C616.987 544.748 616.384 543.902 615.695 543.101C615.005 542.3 614.272 541.632 613.497 541.098C612.722 540.564 611.86 540.297 610.912 540.297C610.481 540.297 610.05 540.387 609.62 540.565C609.189 540.743 608.758 540.92 608.328 541.098C604.623 542.967 600.96 544.57 597.341 545.906C596.642 546.146 595.931 546.363 595.21 546.557C591.29 547.818 587.04 548.511 582.676 548.739C572.188 549.591 561.201 548.331 551.364 545.342C542.019 542.503 533.375 537.948 527.487 532.286C524.195 529.12 521.085 525.622 518.184 520.646C512.934 511.641 508.517 501.012 503.659 488.878C503.301 487.982 502.243 485.331 501.879 484.419C498.865 476.862 495.633 468.759 491.903 460.137C487.896 450.876 482.199 442.91 477 438V520.267C477 523.508 477.847 526.075 479.543 527.965C481.324 529.856 483.571 531.296 486.284 532.286L466.188 532.286C468.901 531.296 471.107 529.856 472.802 527.965C474.498 525.984 475.347 523.418 475.347 520.267V436.707C468.726 431.44 461.647 429.532 455 430.934Z" fill="#F5F5F5"/>
<defs>
<linearGradient id="paint0_linear_0_3" x1="-65" y1="-89.5" x2="1080" y2="1148.5" gradientUnits="userSpaceOnUse">
<stop stop-color="#AB545C"/>
<stop offset="0.92017" stop-color="#2D1316"/>
</linearGradient>
</defs>
</svg>
